<?xml version="1.0" standalone="no"?>
<!DOCTYPE svg PUBLIC "-//W3C//DTD SVG 20010904//EN"
 "http://www.w3.org/TR/2001/REC-SVG-20010904/DTD/svg10.dtd">
<svg version="1.0" xmlns="http://www.w3.org/2000/svg"
 width="2000.000000pt" height="528.000000pt" viewBox="0 0 2000.000000 528.000000"
 preserveAspectRatio="xMidYMid meet">

<g transform="translate(0.000000,528.000000) scale(0.100000,-0.100000)"
fill="#000000" stroke="none">
<path d="M4800 5217 c-72 -21 -117 -46 -154 -88 -71 -78 -66 107 -64 -2434 l3
-2290 23 -58 c50 -122 127 -186 252 -207 46 -8 445 -10 1376 -8 l1310 3 43 28
c64 42 93 113 99 240 9 188 -31 302 -120 346 l-44 21 -1097 0 -1097 0 -2 2128
-3 2127 -27 52 c-32 60 -75 96 -150 125 -67 27 -277 35 -348 15z"/>
<path d="M8492 5215 c-100 -28 -152 -67 -189 -143 l-28 -57 0 -2010 c0 -1909
1 -2014 18 -2095 65 -301 236 -506 552 -663 101 -50 224 -92 317 -107 85 -13
1581 -13 1666 0 94 16 216 57 317 107 365 182 528 409 565 785 7 67 10 780 8
2038 -3 1583 -6 1942 -17 1975 -18 55 -104 137 -167 159 -66 24 -244 32 -326
16 -82 -16 -149 -50 -187 -97 -65 -78 -61 53 -61 -2047 0 -2098 3 -1987 -61
-2106 -60 -113 -138 -168 -269 -189 -87 -14 -1183 -14 -1270 0 -131 21 -215
79 -270 189 -63 125 -60 0 -60 2101 0 2158 6 1983 -76 2065 -64 64 -133 86
-284 90 -89 3 -140 0 -178 -11z"/>
<path d="M478 5184 c-163 -39 -236 -120 -258 -286 -14 -107 -13 -4497 1 -4574
29 -161 147 -238 364 -237 167 1 297 57 353 152 l27 46 5 2135 5 2135 715 0
715 0 73 -24 c95 -31 159 -87 206 -181 56 -112 58 -135 54 -612 -3 -391 -5
-437 -21 -473 -44 -98 -134 -155 -280 -175 l-68 -10 -62 53 c-162 137 -303
185 -463 158 -216 -38 -397 -227 -424 -443 -23 -183 32 -341 159 -461 211
-199 513 -196 728 7 l68 63 64 -8 c93 -13 138 -27 204 -61 75 -40 130 -102
175 -196 l37 -77 0 -505 c0 -449 -2 -511 -17 -560 -26 -83 -89 -175 -145 -210
-100 -64 -96 -63 -688 -69 -535 -6 -540 -6 -582 -28 -90 -49 -126 -130 -126
-288 0 -90 4 -120 22 -168 28 -72 64 -115 116 -138 37 -17 78 -19 581 -19 591
0 631 3 794 58 159 54 368 164 492 258 166 128 277 325 307 547 17 125 15
1147 -3 1239 -39 201 -149 357 -346 488 -52 35 -96 64 -97 64 -1 1 34 39 77
84 136 142 203 260 236 412 21 99 20 1013 -1 1136 -56 320 -188 504 -459 638
-132 65 -266 111 -383 131 -123 21 -2067 21 -2155 -1z"/>
<path d="M12435 5188 c-53 -19 -93 -56 -122 -115 -26 -54 -28 -66 -28 -178 0
-91 5 -133 19 -174 18 -53 70 -121 110 -144 15 -9 181 -13 621 -17 l600 -5 5
-2135 5 -2135 22 -40 c29 -54 78 -100 133 -124 68 -30 199 -43 300 -30 143 18
221 63 267 156 l28 58 3 2128 2 2127 587 0 c574 0 588 0 630 21 52 25 80 62
104 141 25 78 26 251 3 328 -20 66 -73 123 -129 139 -55 15 -3117 14 -3160 -1z"/>
<path d="M17194 5189 c-208 -35 -491 -176 -630 -314 -155 -154 -231 -329 -254
-587 -13 -148 -13 -3081 0 -3238 16 -198 68 -349 164 -484 139 -194 432 -371
699 -421 74 -14 188 -15 893 -12 799 3 810 3 886 25 228 65 467 210 590 356
106 127 174 292 198 486 8 70 10 530 8 1730 -4 1812 1 1680 -69 1860 -56 146
-194 316 -324 397 -70 44 -267 137 -345 163 -148 49 -160 50 -988 49 -428 -1
-800 -5 -828 -10z m1531 -652 c114 -38 189 -115 239 -245 l21 -57 0 -1570 0
-1570 -21 -57 c-33 -84 -91 -167 -143 -200 -101 -64 -91 -63 -796 -63 -583 0
-645 2 -697 18 -137 42 -229 163 -258 339 -6 41 -10 584 -10 1543 0 1624 -2
1555 60 1682 55 110 151 175 289 193 31 5 328 7 661 6 534 -2 611 -4 655 -19z"/>
</g>
</svg>
