<?xml version="1.0" encoding="UTF-8"?>
<!DOCTYPE svg PUBLIC "-//W3C//DTD SVG 1.1//EN" "http://www.w3.org/Graphics/SVG/1.1/DTD/svg11.dtd">
<svg xmlns="http://www.w3.org/2000/svg" version="1.1" width="2000px" height="553px" style="shape-rendering:geometricPrecision; text-rendering:geometricPrecision; image-rendering:optimizeQuality; fill-rule:evenodd; clip-rule:evenodd" xmlns:xlink="http://www.w3.org/1999/xlink">
<g><path style="opacity:0.982" fill="#000000" d="M 527.5,4.5 C 556.031,3.8621 570.865,17.8621 572,46.5C 572.333,198.167 572.667,349.833 573,501.5C 573.946,506.058 575.946,510.058 579,513.5C 582.628,516.057 586.128,518.723 589.5,521.5C 573.704,544.229 553.37,549.395 528.5,537C 519.862,529.112 515.028,519.278 514,507.5C 513.667,356.167 513.333,204.833 513,53.5C 512.183,41.1893 506.35,32.1893 495.5,26.5C 502.521,13.6708 513.188,6.33751 527.5,4.5 Z"/></g>
<g><path style="opacity:0.981" fill="#000000" d="M 151.5,29.5 C 192.39,26.9656 232.723,30.4656 272.5,40C 302.301,48.1756 327.801,63.3422 349,85.5C 377.289,120.864 385.289,160.531 373,204.5C 364.112,230.392 347.612,249.892 323.5,263C 314.399,267.551 305.065,271.551 295.5,275C 326.138,282.815 353.138,297.148 376.5,318C 406.165,349.13 416.665,385.964 408,428.5C 399.379,463.243 379.879,490.077 349.5,509C 311.804,530.593 271.138,541.927 227.5,543C 189.556,544.911 151.89,542.577 114.5,536C 95.3866,532.521 77.7199,525.521 61.5,515C 43.7007,501.905 33.2007,484.405 30,462.5C 29.6667,335.167 29.3333,207.833 29,80.5C 27.9066,71.051 24.7399,62.3843 19.5,54.5C 49.8446,43.3291 81.1779,36.1624 113.5,33C 126.32,31.8219 138.986,30.6552 151.5,29.5 Z M 185.5,74.5 C 206.918,74.3021 227.918,77.1355 248.5,83C 301.289,102.148 322.122,139.315 311,194.5C 299.577,226.918 277.077,247.084 243.5,255C 229.677,258.145 215.677,259.811 201.5,260C 164.168,260.5 126.835,260.667 89.5,260.5C 90.0085,202.501 90.5085,144.501 91,86.5C 102.947,83.1103 115.114,80.6103 127.5,79C 146.921,76.5959 166.254,75.0959 185.5,74.5 Z M 89.5,304.5 C 136.852,304.067 184.185,304.567 231.5,306C 263,308.052 291.333,318.385 316.5,337C 342.72,360.69 351.887,389.856 344,424.5C 336.494,449.011 321.327,467.177 298.5,479C 266.576,493.318 233.076,499.818 198,498.5C 175.164,498.926 152.664,496.426 130.5,491C 113.612,487.323 100.779,478.157 92,463.5C 90.3844,459.653 89.3844,455.653 89,451.5C 89.2421,402.504 89.4087,353.504 89.5,304.5 Z"/></g>
<g><path style="opacity:0.977" fill="#000000" d="M 1126.5,75.5 C 1155.63,73.1403 1171.47,86.4736 1174,115.5C 1174.5,137.497 1174.67,159.497 1174.5,181.5C 1213.84,181.167 1253.17,181.5 1292.5,182.5C 1296.75,193.167 1294.75,202.333 1286.5,210C 1276.05,216.374 1264.71,220.374 1252.5,222C 1226.64,225.863 1200.64,227.363 1174.5,226.5C 1174.33,303.834 1174.5,381.167 1175,458.5C 1175.28,476.94 1184.11,488.774 1201.5,494C 1230.06,498.144 1256.06,491.811 1279.5,475C 1286.31,469.689 1292.98,464.189 1299.5,458.5C 1309.43,464.76 1313.26,473.76 1311,485.5C 1308.18,497.965 1301.68,508.131 1291.5,516C 1266,535.166 1237.16,544.333 1205,543.5C 1148.87,544.703 1118.87,517.37 1115,461.5C 1114.5,383.167 1114.33,304.834 1114.5,226.5C 1098.41,226.874 1083.07,223.708 1068.5,217C 1061.48,212.63 1058.15,206.297 1058.5,198C 1058.07,190.626 1060.4,184.293 1065.5,179C 1081.76,180.625 1098.1,181.458 1114.5,181.5C 1114.95,159.122 1114.45,136.789 1113,114.5C 1111.5,110.835 1109.5,107.502 1107,104.5C 1103.71,102.112 1100.54,99.6116 1097.5,97C 1104.37,85.9155 1114.03,78.7488 1126.5,75.5 Z"/></g>
<g><path style="opacity:0.983" fill="#000000" d="M 1404.5,75.5 C 1431.95,72.4499 1447.78,84.4499 1452,111.5C 1452.5,134.831 1452.67,158.164 1452.5,181.5C 1491.84,181.167 1531.17,181.5 1570.5,182.5C 1575.63,193.797 1573.3,203.297 1563.5,211C 1545.83,219.47 1527.16,224.136 1507.5,225C 1489.19,226.249 1470.86,226.749 1452.5,226.5C 1452.33,302.501 1452.5,378.501 1453,454.5C 1453.23,464.534 1455.9,473.867 1461,482.5C 1465.88,488.376 1472.05,492.209 1479.5,494C 1511.36,498.38 1539.69,490.38 1564.5,470C 1568.98,466.353 1573.32,462.519 1577.5,458.5C 1588.5,465.184 1592.33,474.85 1589,487.5C 1587.17,495.5 1583.5,502.5 1578,508.5C 1551.61,532.968 1520.28,544.635 1484,543.5C 1464.36,544.298 1445.86,540.131 1428.5,531C 1407.01,515.871 1395.51,495.037 1394,468.5C 1393.5,387.834 1393.33,307.167 1393.5,226.5C 1376.59,226.961 1360.59,223.461 1345.5,216C 1336.14,207.53 1333.97,197.363 1339,185.5C 1340.49,183.015 1342.32,180.848 1344.5,179C 1360.75,180.757 1377.09,181.591 1393.5,181.5C 1393.91,159.801 1393.41,138.134 1392,116.5C 1389.18,107.847 1383.68,101.513 1375.5,97.5C 1382.32,86.3326 1391.99,78.9993 1404.5,75.5 Z"/></g>
<g><path style="opacity:0.981" fill="#000000" d="M 713.5,174.5 C 738.454,172.634 752.954,183.967 757,208.5C 758.309,283.476 758.975,358.476 759,433.5C 762.451,467.928 781.284,487.428 815.5,492C 862.754,495.792 898.254,477.292 922,436.5C 925.273,430.288 928.273,423.954 931,417.5C 931.667,351.833 931.667,286.167 931,220.5C 929.177,209.837 923.344,202.17 913.5,197.5C 929.499,173.865 950.166,168.699 975.5,182C 983.639,190.114 988.139,199.948 989,211.5C 989.333,306.833 989.667,402.167 990,497.5C 990.534,501.768 991.867,505.768 994,509.5C 997.933,514.107 1002.43,517.94 1007.5,521C 997.465,538.183 982.465,545.517 962.5,543C 947.233,540.401 937.733,531.567 934,516.5C 933.055,512.886 932.388,509.219 932,505.5C 931.667,496.5 931.333,487.5 931,478.5C 901.62,526.94 858.453,548.44 801.5,543C 743.466,539.294 709.966,508.794 701,451.5C 699.697,375.186 699.03,298.853 699,222.5C 698.089,210.751 692.256,202.417 681.5,197.5C 688.422,184.393 699.089,176.727 713.5,174.5 Z"/></g>
<g><path style="opacity:0.977" fill="#000000" d="M 1794.5,174.5 C 1861.99,171.328 1914.16,197.661 1951,253.5C 1968.46,286.623 1976.96,321.957 1976.5,359.5C 1976.49,389.885 1970.99,419.218 1960,447.5C 1932.55,504.26 1887.38,536.094 1824.5,543C 1761.34,547.526 1710.84,524.693 1673,474.5C 1655.01,446.533 1645.01,415.866 1643,382.5C 1639.03,341.57 1645.03,302.236 1661,264.5C 1677.42,235.067 1699.26,210.233 1726.5,190C 1735.14,185.677 1744.14,182.343 1753.5,180C 1767.2,177.314 1780.87,175.481 1794.5,174.5 Z M 1792.5,215.5 C 1812.68,214.317 1832.34,216.817 1851.5,223C 1855.83,224.829 1859.83,227.162 1863.5,230C 1874.8,241.63 1884.97,254.13 1894,267.5C 1906.14,292.4 1912.81,318.734 1914,346.5C 1917.5,380.346 1913.83,413.346 1903,445.5C 1886.61,483.953 1857.45,503.287 1815.5,503.5C 1769.84,501.429 1737.34,479.762 1718,438.5C 1708.78,414.721 1703.78,390.054 1703,364.5C 1700.3,332.915 1704.3,302.248 1715,272.5C 1730.02,238.632 1755.85,219.632 1792.5,215.5 Z"/></g>
</svg>
